# xmcd
#
# Track frame offsets:
#	150
#	11960
#	26005
#	38159
#	58955
#	69256
#	82415
#	99357
#	111345
#	138205
#	153070
#	166242
#
# Disc length: 2445 seconds
#
# Revision: 1
# Processed by: cddbd v1.4PL0 Copyright (c) Steve Scherf et al.
# Submitted via: audiograbber 1.81.01
#
DISCID=9b098b0c
DTITLE=Knucklebone Oscar - Songs From My Heart
DYEAR=2001
DGENRE=Blues
TTITLE0=Shake Me
TTITLE1=Cobra and Mustang
TTITLE2=99
TTITLE3=Mingle In the Jungle
TTITLE4=Money
TTITLE5=Earthquake and Hurricane
TTITLE6=Guitar Man
TTITLE7=Stop That Building
TTITLE8=Whistlin' Past the Graveyard
TTITLE9=Checking On My Baby
TTITLE10=I've Had Enough
TTITLE11=Cut You Loose
EXTD=
EXTT0=
EXTT1=
EXTT2=
EXTT3=
EXTT4=
EXTT5=
EXTT6=
EXTT7=
EXTT8=
EXTT9=
EXTT10=
EXTT11=
PLAYORDER=
